<?xml version="1.0" encoding="utf-8"?>
<!-- Generator: Adobe Illustrator 18.0.0, SVG Export Plug-In . SVG Version: 6.00 Build 0)  -->
<!DOCTYPE svg PUBLIC "-//W3C//DTD SVG 1.1//EN" "http://www.w3.org/Graphics/SVG/1.1/DTD/svg11.dtd">
<svg version="1.1" id="Layer_1" xmlns="http://www.w3.org/2000/svg" xmlns:xlink="http://www.w3.org/1999/xlink" x="0px" y="0px"
	 viewBox="0 0 512 512" enable-background="new 0 0 512 512" xml:space="preserve">
<g>

	<path fill="#1A6636" d="M256.2,7C118.6,7,7,118.6,7,256.2c0,137.6,111.6,249.2,249.2,249.2c137.6,0,249.2-111.6,249.2-249.2
		C505.4,118.6,393.8,7,256.2,7L256.2,7z M374.6,186.3L351,210l-48.2-48.2l-18.3,18.3l48.2,48.2L214.5,346.4l-48.2-48.2l-18.3,18.3
		l48.2,48.2l-11.8,11.8l-0.2-0.2c-1.3,2.1-3.4,3.7-5.9,4.3l-44.9,10c-0.7,0.2-1.4,0.2-2,0.2c-2.5,0-4.8-1-6.6-2.7
		c-2.3-2.3-3.2-5.5-2.5-8.6l10-44.9c0.6-2.5,2.1-4.6,4.3-5.9l-0.2-0.2l190.2-190.2c2.8-2.8,7.3-2.8,10.1,0l38.1,38.1
		C377.4,179,377.4,183.5,374.6,186.3L374.6,186.3z M374.6,186.3"/>

</g>
</svg>

