<?xml version="1.0" standalone="no"?>
<!DOCTYPE svg PUBLIC "-//W3C//DTD SVG 20010904//EN"
 "http://www.w3.org/TR/2001/REC-SVG-20010904/DTD/svg10.dtd">
<svg version="1.0" xmlns="http://www.w3.org/2000/svg"
 width="1041.000000pt" height="694.000000pt" viewBox="0 0 1041.000000 694.000000"
 preserveAspectRatio="xMidYMid meet">
<metadata>
Created by potrace 1.16, written by Peter Selinger 2001-2019
</metadata>
<g transform="translate(0.000000,694.000000) scale(0.100000,-0.100000)"
fill="#66BC46" stroke="none">
<path d="M595 6860 c-134 -27 -241 -87 -351 -196 -64 -63 -90 -98 -123 -165
-78 -159 -71 121 -71 -3039 0 -3136 -5 -2891 65 -3035 68 -140 175 -245 320
-316 158 -76 -280 -70 4765 -67 l4525 3 80 27 c187 64 326 186 411 362 70 144
65 -96 62 3061 l-3 2850 -27 73 c-39 106 -83 177 -163 257 -80 80 -151 124
-257 163 l-73 27 -4560 1 c-2508 1 -4578 -2 -4600 -6z m4170 -876 c139 -48
236 -145 287 -285 l23 -64 0 -2185 c0 -2115 -1 -2187 -19 -2240 -60 -176 -200
-288 -386 -311 -56 -6 -674 -9 -1785 -7 l-1700 3 -63 24 c-106 39 -203 125
-254 225 -49 96 -48 22 -48 2306 0 1818 2 2145 15 2203 39 185 182 317 375
346 30 5 829 8 1775 7 1712 -1 1720 -1 1780 -22z m4277 -2 c71 -29 147 -100
184 -172 25 -48 28 -66 28 -145 1 -75 -3 -98 -23 -137 -52 -107 -142 -176
-256 -198 -44 -8 -443 -10 -1455 -8 -1549 3 -1426 -2 -1525 69 -98 71 -159
214 -137 323 30 151 139 261 284 285 30 5 669 8 1448 7 l1395 -1 57 -23z m146
-2400 c39 -28 72 -89 72 -132 0 -43 -33 -104 -72 -132 l-33 -23 -1592 0 -1592
0 -28 21 c-89 66 -99 179 -21 251 12 12 34 26 48 32 16 6 569 9 1605 8 l1580
-2 33 -23z m-5 -1202 c102 -70 101 -197 -3 -267 l-33 -23 -1582 0 -1582 0 -34
23 c-57 38 -81 84 -77 143 5 64 37 110 92 135 40 18 97 19 1612 16 l1570 -2
37 -25z m-30 -1174 c38 -16 94 -76 103 -112 21 -83 -40 -173 -132 -194 -57
-14 -3060 -13 -3122 0 -84 19 -138 88 -130 170 6 60 39 107 92 131 39 18 101
19 1599 19 1286 0 1563 -2 1590 -14z"/>
<path d="M2798 5425 c-179 -34 -325 -107 -450 -224 -192 -180 -288 -397 -289
-651 -1 -135 12 -214 52 -324 97 -267 324 -478 599 -556 108 -31 308 -38 420
-16 347 70 618 330 702 673 27 111 29 303 5 405 -82 339 -329 594 -658 678
-109 28 -277 35 -381 15z"/>
<path d="M2181 3683 c-391 -242 -661 -643 -743 -1103 -16 -92 -21 -173 -25
-402 -3 -157 -2 -307 2 -333 26 -177 404 -306 1075 -367 179 -16 746 -16 930
0 323 29 553 69 743 129 184 58 292 125 324 200 16 40 18 488 2 644 -53 528
-339 983 -783 1246 l-69 41 -77 -54 c-258 -180 -593 -236 -896 -148 -134 38
-239 92 -370 189 -19 14 -26 11 -113 -42z"/>
</g>
</svg>
