<svg width="709" height="571" viewBox="0 0 709 571" fill="none" xmlns="http://www.w3.org/2000/svg">
<path d="M387.741 44.349C390.468 44.349 392.679 42.1426 392.679 39.4208C392.679 36.6991 390.468 34.4927 387.741 34.4927C385.014 34.4927 382.803 36.6991 382.803 39.4208C382.803 42.1426 385.014 44.349 387.741 44.349Z" fill="#3A6805"/>
<path d="M238.762 263.639C233.185 263.601 227.607 263.591 222.03 263.609C204.237 263.666 188.463 252.659 182.645 235.981C174.041 211.318 190.576 184.652 216.652 181.582C218.345 181.383 221.273 181.284 225.436 181.284C249.906 181.284 274.375 181.286 298.845 181.292C301.124 181.292 302.848 181.09 304.016 180.686C306.979 179.667 308.983 177.669 310.028 174.691C310.415 173.584 310.609 172.029 310.609 170.026C310.606 145.523 310.604 121.02 310.604 96.5164C310.604 92.3672 310.704 89.4434 310.903 87.745C313.746 63.5258 337.375 46.9009 361.224 52.5319C377.9 56.463 390.544 70.2504 392.758 87.2047C392.989 88.9968 393.105 91.9206 393.105 95.9762C393.108 112.81 393.108 129.632 393.105 146.439C393.105 146.5 393.091 146.56 393.063 146.613C393.036 146.667 392.996 146.713 392.947 146.747C364.848 166.553 336.833 186.513 308.901 206.627C286.016 223.103 266.383 244.502 252.982 269.393C243.102 287.736 237.455 307.668 238.208 328.628C238.22 328.953 238.162 328.965 238.036 328.663C230.489 310.725 230.37 289.932 236.157 271.554C236.808 269.49 237.734 266.935 238.934 263.89C238.999 263.723 238.941 263.639 238.762 263.639Z" fill="#60C603"/>
<path d="M419.054 73.6283C423.655 73.6283 427.385 69.9057 427.385 65.3137C427.385 60.7216 423.655 56.999 419.054 56.999C414.453 56.999 410.723 60.7216 410.723 65.3137C410.723 69.9057 414.453 73.6283 419.054 73.6283Z" fill="#3A6805"/>
<path d="M442.929 111.982C449.404 111.982 454.654 106.743 454.654 100.281C454.654 93.8184 449.404 88.5796 442.929 88.5796C436.454 88.5796 431.205 93.8184 431.205 100.281C431.205 106.743 436.454 111.982 442.929 111.982Z" fill="#3A6805"/>
<path d="M462.342 181.565C469.064 181.571 475.785 181.584 482.507 181.604C499.451 181.657 514.476 191.926 520.593 207.589C530.157 232.072 514.084 259.291 488.057 262.792C486.167 263.047 483.239 263.174 479.272 263.174C454.515 263.171 429.758 263.171 405.001 263.174C399.839 263.174 395.28 266.692 393.717 271.489C393.312 272.733 393.11 274.554 393.11 276.953C393.11 301.359 393.108 325.766 393.105 350.172C393.105 354.128 392.969 357.052 392.696 358.944C390.504 374.22 379.735 387.107 365.133 392.066C340.355 400.482 313.782 384.129 310.631 358.074C310.423 356.358 310.318 353.434 310.318 349.303C310.318 332.059 310.318 314.823 310.318 297.597C310.318 297.495 310.358 297.398 310.428 297.324C321.927 285.972 334.308 275.733 347.573 266.609C358.734 258.931 370.216 251.837 381.584 244.489C402.585 230.904 421.84 214.266 437.428 194.663C454.433 173.277 468.811 144.762 462.694 116.603C462.6 116.161 462.691 116.118 462.967 116.475C464.789 118.83 466.102 121.513 466.906 124.526C470.198 136.847 469.696 150.423 467.671 163.06C466.642 169.486 465.123 175.631 462.192 181.319C462.107 181.483 462.157 181.565 462.342 181.565Z" fill="#3A6805"/>
<path d="M441.283 153.177C448.908 153.177 455.089 147.009 455.089 139.399C455.089 131.789 448.908 125.62 441.283 125.62C433.659 125.62 427.478 131.789 427.478 139.399C427.478 147.009 433.659 153.177 441.283 153.177Z" fill="#3A6805"/>
<path d="M417.306 186.941C425.354 186.941 431.878 180.43 431.878 172.398C431.878 164.366 425.354 157.855 417.306 157.855C409.258 157.855 402.734 164.366 402.734 172.398C402.734 180.43 409.258 186.941 417.306 186.941Z" fill="#3A6805"/>
<path d="M385.219 214.701C394.055 214.701 401.217 207.552 401.217 198.735C401.217 189.917 394.055 182.769 385.219 182.769C376.384 182.769 369.222 189.917 369.222 198.735C369.222 207.552 376.384 214.701 385.219 214.701Z" fill="#3A6805"/>
<path d="M351.71 238.52C360.362 238.52 367.377 231.519 367.377 222.883C367.377 214.247 360.362 207.247 351.71 207.247C343.057 207.247 336.042 214.247 336.042 222.883C336.042 231.519 343.057 238.52 351.71 238.52Z" fill="#3A6805"/>
<path d="M318.319 262.449C326.911 262.449 333.877 255.498 333.877 246.922C333.877 238.347 326.911 231.396 318.319 231.396C309.727 231.396 302.762 238.347 302.762 246.922C302.762 255.498 309.727 262.449 318.319 262.449Z" fill="#3A6805"/>
<path d="M286.747 289.04C294.877 289.04 301.468 282.462 301.468 274.348C301.468 266.234 294.877 259.656 286.747 259.656C278.616 259.656 272.025 266.234 272.025 274.348C272.025 282.462 278.616 289.04 286.747 289.04Z" fill="#3A6805"/>
<path d="M262.145 321.78C269.649 321.78 275.731 315.71 275.731 308.221C275.731 300.733 269.649 294.662 262.145 294.662C254.642 294.662 248.56 300.733 248.56 308.221C248.56 315.71 254.642 321.78 262.145 321.78Z" fill="#3A6805"/>
<path d="M260.829 360.029C267.185 360.029 272.338 354.887 272.338 348.543C272.338 342.2 267.185 337.057 260.829 337.057C254.473 337.057 249.32 342.2 249.32 348.543C249.32 354.887 254.473 360.029 260.829 360.029Z" fill="#3A6805"/>
<path d="M283.023 392.189C287.906 392.189 291.865 388.239 291.865 383.365C291.865 378.492 287.906 374.541 283.023 374.541C278.14 374.541 274.182 378.492 274.182 383.365C274.182 388.239 278.14 392.189 283.023 392.189Z" fill="#3A6805"/>
<path d="M71.6353 481.182V534.759C71.6353 534.911 71.5604 534.987 71.4108 534.987H45.4582C45.3936 534.987 45.3613 534.955 45.3613 534.891V408.463C45.3613 408.228 45.4347 408.202 45.5814 408.384L104.911 481.634C104.926 481.652 104.945 481.667 104.966 481.677C104.987 481.688 105.011 481.693 105.034 481.693C105.058 481.693 105.081 481.688 105.103 481.677C105.124 481.667 105.143 481.652 105.158 481.634L164.483 408.392C164.63 408.211 164.703 408.236 164.703 408.467V534.768C164.703 534.914 164.63 534.987 164.483 534.987H138.825C138.658 534.987 138.574 534.904 138.574 534.737V481.397C138.574 481.16 138.501 481.135 138.354 481.322L105.184 523.488C105.166 523.511 105.143 523.53 105.117 523.542C105.09 523.555 105.061 523.562 105.032 523.562C105.003 523.562 104.974 523.555 104.948 523.542C104.922 523.53 104.898 523.511 104.88 523.488L71.7321 481.151C71.7257 481.141 71.7164 481.134 71.7056 481.13C71.6948 481.126 71.683 481.126 71.672 481.13C71.6611 481.133 71.6516 481.14 71.6449 481.15C71.6383 481.159 71.6349 481.17 71.6353 481.182Z" fill="#60C603"/>
<path d="M343.009 456.567C343.141 456.655 343.207 456.62 343.207 456.462V411.423C343.207 411.286 343.276 411.217 343.414 411.217H369.243C369.399 411.217 369.477 411.294 369.477 411.45V534.759C369.477 534.912 369.4 534.988 369.248 534.988H344.954C344.902 534.988 344.851 534.967 344.813 534.931C344.774 534.894 344.751 534.844 344.747 534.79L344.47 529.387C344.461 529.212 344.384 529.174 344.237 529.273C334.977 535.689 324.79 537.863 313.676 535.796C286.544 530.749 272.655 501.387 282.575 476.579C291.984 453.045 321.233 441.787 343.009 456.567ZM324.811 512.85C329.909 512.85 334.799 510.792 338.404 507.128C342.009 503.464 344.034 498.495 344.034 493.313C344.034 488.132 342.009 483.163 338.404 479.499C334.799 475.835 329.909 473.776 324.811 473.776C319.713 473.776 314.823 475.835 311.218 479.499C307.613 483.163 305.587 488.132 305.587 493.313C305.587 498.495 307.613 503.464 311.218 507.128C314.823 510.792 319.713 512.85 324.811 512.85Z" fill="#60C603"/>
<path d="M417.245 437.312V459.941C417.245 459.981 417.261 460.021 417.29 460.049C417.319 460.078 417.358 460.094 417.399 460.094L465.031 460.099C465.071 460.099 465.111 460.115 465.14 460.144C465.168 460.173 465.185 460.212 465.185 460.253V485.917C465.185 485.958 465.168 485.997 465.14 486.025C465.111 486.054 465.071 486.071 465.031 486.071H417.399C417.358 486.071 417.319 486.087 417.29 486.116C417.261 486.144 417.245 486.183 417.245 486.224V534.834C417.245 534.875 417.228 534.914 417.2 534.943C417.171 534.971 417.131 534.988 417.091 534.988H391.125C391.084 534.988 391.045 534.971 391.016 534.943C390.987 534.914 390.971 534.875 390.971 534.834L390.98 411.371C390.98 411.33 390.996 411.291 391.025 411.262C391.054 411.233 391.093 411.217 391.134 411.217H471.196C471.237 411.217 471.276 411.233 471.305 411.262C471.334 411.291 471.35 411.33 471.35 411.371V437.004C471.35 437.045 471.334 437.084 471.305 437.113C471.276 437.142 471.237 437.158 471.196 437.158H417.399C417.358 437.158 417.319 437.174 417.29 437.203C417.261 437.232 417.245 437.271 417.245 437.312Z" fill="#60C603"/>
<path d="M558.856 411.212H533.004C532.926 411.212 532.863 411.275 532.863 411.353V534.847C532.863 534.925 532.926 534.988 533.004 534.988H558.856C558.933 534.988 558.996 534.925 558.996 534.847V411.353C558.996 411.275 558.933 411.212 558.856 411.212Z" fill="#60C603"/>
<path d="M498.884 444.365C507.082 444.365 513.728 437.862 513.728 429.84C513.728 421.818 507.082 415.314 498.884 415.314C490.685 415.314 484.039 421.818 484.039 429.84C484.039 437.862 490.685 444.365 498.884 444.365Z" fill="#60C603"/>
<path d="M207.758 500.209C209.716 508.546 216.555 513.882 224.996 514.322C231.9 514.679 237.523 512.146 241.865 506.723C241.953 506.612 242.068 506.574 242.209 506.609L265.261 512.455C265.393 512.49 265.433 512.569 265.38 512.692C255.966 534.302 230.013 541.009 209.267 533.639C194.225 528.298 183.526 515.068 181.572 498.966C178.249 471.571 199.061 449.908 226.321 450.339C250.183 450.717 267.976 467.978 268.553 491.938C268.591 493.429 268.483 496.039 268.227 499.77C268.218 499.902 268.148 499.968 268.016 499.968H207.947C207.783 499.968 207.72 500.048 207.758 500.209ZM222.637 472.371C216.356 473.179 211.741 476.696 208.792 482.921C208.78 482.947 208.775 482.976 208.777 483.004C208.778 483.033 208.787 483.06 208.802 483.084C208.817 483.108 208.837 483.128 208.862 483.142C208.886 483.155 208.914 483.162 208.942 483.163L241.188 483.158C241.255 483.158 241.277 483.127 241.254 483.066C238.199 474.751 231.065 471.281 222.637 472.371Z" fill="#60C603"/>
<path d="M579.576 474.119C588.505 456.198 608.939 447.374 628.299 451.147C646.462 454.687 660.409 468.629 663.173 487.024C665.756 504.246 657.878 520.985 642.937 530.108C626.517 540.127 604.155 538.256 589.557 525.61C574.858 512.877 570.976 491.368 579.576 474.119ZM637.955 494.554C638.24 489.617 636.54 484.769 633.228 481.076C629.916 477.383 625.264 475.147 620.295 474.862C617.835 474.72 615.371 475.061 613.044 475.866C610.717 476.671 608.572 477.923 606.733 479.551C604.893 481.18 603.395 483.152 602.323 485.357C601.251 487.561 600.626 489.953 600.485 492.398C600.2 497.335 601.9 502.183 605.212 505.876C608.524 509.569 613.176 511.804 618.145 512.09C620.605 512.232 623.069 511.891 625.396 511.086C627.723 510.281 629.867 509.029 631.707 507.401C633.546 505.772 635.045 503.8 636.117 501.595C637.189 499.391 637.813 496.999 637.955 494.554Z" fill="#60C603"/>
<path d="M511.73 451.85H485.993C485.93 451.85 485.879 451.901 485.879 451.964V534.874C485.879 534.937 485.93 534.988 485.993 534.988H511.73C511.794 534.988 511.845 534.937 511.845 534.874V451.964C511.845 451.901 511.794 451.85 511.73 451.85Z" fill="#60C603"/>
</svg>
